<?xml version="1.0" encoding="utf-8"?>
<!-- Generator: Adobe Illustrator 27.3.1, SVG Export Plug-In . SVG Version: 6.00 Build 0)  -->
<svg version="1.1" id="Layer_1" xmlns="http://www.w3.org/2000/svg" xmlns:xlink="http://www.w3.org/1999/xlink" x="0px" y="0px"
	 viewBox="0 0 80 41" style="enable-background:new 0 0 80 41;" xml:space="preserve">
<style type="text/css">
	.st0{fill:#C4CFDA;}
</style>
<path class="st0" d="M47.7,27l-7.2-13c-0.2-0.3-0.7-0.3-0.9,0l-7.2,13c-0.1,0.1-0.1,0.3,0,0.5l7.2,13c0.2,0.3,0.7,0.3,0.9,0l7.2-13
	C47.7,27.3,47.7,27.1,47.7,27z"/>
<path class="st0" d="M32,26.6L19.1,3.7c-1-1.9-3-3-5.1-3H2.2C1.9,0.7,1.7,1,1.9,1.3l6.6,11.9c0.1,0.2,0.2,0.2,0.4,0.2h12.5
	c0.2,0,0.3,0.1,0.4,0.2l0.4,0.6c0.1,0.1,0,0.2-0.1,0.2H9.5c-0.1,0-0.2,0.1-0.1,0.2l5.6,10c0.9,1.5,2.5,2.5,4.2,2.5h12.5
	C31.9,27.2,32.1,26.9,32,26.6z"/>
<path class="st0" d="M48,26.6L60.9,3.7c1-1.9,3-3,5.1-3h11.8c0.3,0,0.5,0.3,0.3,0.6l-6.6,11.9c-0.1,0.2-0.2,0.2-0.4,0.2H58.6
	c-0.2,0-0.3,0.1-0.4,0.2l-0.4,0.6c-0.1,0.1,0,0.2,0.1,0.2h12.6c0.1,0,0.2,0.1,0.1,0.2l-5.6,10c-0.9,1.5-2.5,2.5-4.2,2.5H48.4
	C48.1,27.2,47.9,26.9,48,26.6z"/>
</svg>
